<?xml version="1.0" encoding="UTF-8" standalone="no"?>
<!DOCTYPE svg PUBLIC "-//W3C//DTD SVG 1.1//EN"
 "http://www.w3.org/Graphics/SVG/1.1/DTD/svg11.dtd">
<!-- Generated by graphviz version 2.26.3 (20100126.1600)
 -->
<!-- Title: G Pages: 1 -->
<svg width="870pt" height="674pt"
 viewBox="0.00 0.00 870.00 674.00" xmlns="http://www.w3.org/2000/svg" xmlns:xlink="http://www.w3.org/1999/xlink">
<g id="graph1" class="graph" transform="scale(1 1) rotate(0) translate(4 670)">
<title>G</title>
<polygon fill="white" stroke="white" points="-4,5 -4,-670 867,-670 867,5 -4,5"/>
<g id="graph2" class="cluster"><title>cluster_Global</title>
<polyline fill="none" stroke="gray" points="241,-206 842,-206 "/>
<path fill="none" stroke="gray" d="M842,-206C848,-206 854,-212 854,-218"/>
<polyline fill="none" stroke="gray" points="854,-218 854,-646 "/>
<path fill="none" stroke="gray" d="M854,-646C854,-652 848,-658 842,-658"/>
<polyline fill="none" stroke="gray" points="842,-658 241,-658 "/>
<path fill="none" stroke="gray" d="M241,-658C235,-658 229,-652 229,-646"/>
<polyline fill="none" stroke="gray" points="229,-646 229,-218 "/>
<path fill="none" stroke="gray" d="M229,-218C229,-212 235,-206 241,-206"/>
<text text-anchor="middle" x="541.5" y="-644.1" font-family="Times Roman,serif" font-size="11.00" fill="gray">Global</text>
</g>
<!-- \\SerializableAssocFixture -->
<g id="node2" class="node"><title>\\SerializableAssocFixture</title>
<polygon fill="none" stroke="black" points="795,-466 617,-466 617,-430 795,-430 795,-466"/>
<text text-anchor="middle" x="706" y="-445.1" font-family="Courier,monospace" font-size="11.00">SerializableAssocFixture</text>
</g>
<!-- \\CakeTestFixture -->
<g id="node12" class="node"><title>\\CakeTestFixture</title>
<ellipse fill="none" stroke="black" cx="327" cy="-180" rx="92.1303" ry="18.3848"/>
<text text-anchor="middle" x="327" y="-176.4" font-family="Times Roman,serif" font-size="14.00" fill="gray">\CakeTestFixture</text>
</g>
<!-- \\SerializableAssocFixture&#45;&gt;\\CakeTestFixture -->
<g id="edge3" class="edge"><title>\\SerializableAssocFixture&#45;&gt;\\CakeTestFixture</title>
<path fill="none" stroke="black" d="M616.27,-445.077C597.958,-440.762 580.028,-433.349 566,-421 489.095,-353.299 572.886,-267.382 494,-202 474.521,-185.855 449.134,-178.11 424.058,-174.931"/>
<polygon fill="none" stroke="black" points="424.411,-171.449 414.103,-173.897 423.688,-178.411 424.411,-171.449"/>
</g>
<!-- \\SerializableFixture -->
<g id="node3" class="node"><title>\\SerializableFixture</title>
<polygon fill="none" stroke="black" points="778,-412 634,-412 634,-376 778,-376 778,-412"/>
<text text-anchor="middle" x="706" y="-391.1" font-family="Courier,monospace" font-size="11.00">SerializableFixture</text>
</g>
<!-- \\SerializableFixture&#45;&gt;\\CakeTestFixture -->
<g id="edge5" class="edge"><title>\\SerializableFixture&#45;&gt;\\CakeTestFixture</title>
<path fill="none" stroke="black" d="M633.485,-393.162C609.895,-389.667 584.94,-382.158 566,-367 503.531,-317.006 557.929,-250.113 494,-202 474.782,-187.536 450.674,-180.096 426.802,-176.658"/>
<polygon fill="none" stroke="black" points="426.949,-173.151 416.601,-175.422 426.107,-180.1 426.949,-173.151"/>
</g>
<!-- \\AllSerializableTest -->
<g id="node4" class="node"><title>\\AllSerializableTest</title>
<polygon fill="none" stroke="black" points="778,-358 634,-358 634,-322 778,-322 778,-358"/>
<text text-anchor="middle" x="706" y="-337.1" font-family="Courier,monospace" font-size="11.00">AllSerializableTest</text>
</g>
<!-- \\PHPUnit_Framework_TestSuite -->
<g id="node15" class="node"><title>\\PHPUnit_Framework_TestSuite</title>
<ellipse fill="none" stroke="black" cx="327" cy="-126" rx="166.877" ry="18.3848"/>
<text text-anchor="middle" x="327" y="-122.4" font-family="Times Roman,serif" font-size="14.00" fill="gray">\PHPUnit_Framework_TestSuite</text>
</g>
<!-- \\AllSerializableTest&#45;&gt;\\PHPUnit_Framework_TestSuite -->
<g id="edge7" class="edge"><title>\\AllSerializableTest&#45;&gt;\\PHPUnit_Framework_TestSuite</title>
<path fill="none" stroke="black" d="M633.222,-338.985C609.747,-335.457 584.929,-327.973 566,-313 504.841,-264.623 555.883,-200.447 494,-153 487.691,-148.162 480.848,-144.046 473.656,-140.553"/>
<polygon fill="none" stroke="black" points="474.935,-137.291 464.373,-136.453 472.107,-143.694 474.935,-137.291"/>
</g>
<!-- \\SerializableTestAppModel -->
<g id="node5" class="node"><title>\\SerializableTestAppModel</title>
<polygon fill="none" stroke="black" points="416,-574 238,-574 238,-538 416,-538 416,-574"/>
<text text-anchor="middle" x="327" y="-553.1" font-family="Courier,monospace" font-size="11.00">SerializableTestAppModel</text>
</g>
<!-- \\Model -->
<g id="node17" class="node"><title>\\Model</title>
<ellipse fill="none" stroke="black" cx="44" cy="-556" rx="43.8406" ry="18.3848"/>
<text text-anchor="middle" x="44" y="-552.4" font-family="Times Roman,serif" font-size="14.00" fill="gray">\Model</text>
</g>
<!-- \\SerializableTestAppModel&#45;&gt;\\Model -->
<g id="edge9" class="edge"><title>\\SerializableTestAppModel&#45;&gt;\\Model</title>
<path fill="none" stroke="black" d="M237.457,-556C191.821,-556 137.813,-556 98.4746,-556"/>
<polygon fill="none" stroke="black" points="98.2965,-552.5 88.2965,-556 98.2965,-559.5 98.2965,-552.5"/>
</g>
<!-- \\SerializableSimpleTestModel -->
<g id="node6" class="node"><title>\\SerializableSimpleTestModel</title>
<polygon fill="none" stroke="black" points="805,-628 607,-628 607,-592 805,-592 805,-628"/>
<text text-anchor="middle" x="706" y="-607.1" font-family="Courier,monospace" font-size="11.00">SerializableSimpleTestModel</text>
</g>
<!-- \\SerializableSimpleTestModel&#45;&gt;\\SerializableTestAppModel -->
<g id="edge11" class="edge"><title>\\SerializableSimpleTestModel&#45;&gt;\\SerializableTestAppModel</title>
<path fill="none" stroke="black" d="M606.422,-595.812C550.986,-587.914 482.183,-578.111 426.723,-570.209"/>
<polygon fill="none" stroke="black" points="426.923,-566.702 416.529,-568.756 425.935,-573.632 426.923,-566.702"/>
</g>
<!-- \\SerializableBelongsToAssocTestModel -->
<g id="node7" class="node"><title>\\SerializableBelongsToAssocTestModel</title>
<polygon fill="none" stroke="black" points="832,-574 580,-574 580,-538 832,-538 832,-574"/>
<text text-anchor="middle" x="706" y="-553.1" font-family="Courier,monospace" font-size="11.00">SerializableBelongsToAssocTestModel</text>
</g>
<!-- \\SerializableBelongsToAssocTestModel&#45;&gt;\\SerializableTestAppModel -->
<g id="edge13" class="edge"><title>\\SerializableBelongsToAssocTestModel&#45;&gt;\\SerializableTestAppModel</title>
<path fill="none" stroke="black" d="M579.272,-556C529.652,-556 473.56,-556 426.889,-556"/>
<polygon fill="none" stroke="black" points="426.774,-552.5 416.774,-556 426.774,-559.5 426.774,-552.5"/>
</g>
<!-- \\SerializableBelongsToSelfAssocTestModel -->
<g id="node8" class="node"><title>\\SerializableBelongsToSelfAssocTestModel</title>
<polygon fill="none" stroke="black" points="846,-520 566,-520 566,-484 846,-484 846,-520"/>
<text text-anchor="middle" x="706" y="-499.1" font-family="Courier,monospace" font-size="11.00">SerializableBelongsToSelfAssocTestModel</text>
</g>
<!-- \\SerializableBelongsToSelfAssocTestModel&#45;&gt;\\SerializableTestAppModel -->
<g id="edge15" class="edge"><title>\\SerializableBelongsToSelfAssocTestModel&#45;&gt;\\SerializableTestAppModel</title>
<path fill="none" stroke="black" d="M589.146,-520.041C558.227,-524.705 524.867,-529.638 494,-534 472.28,-537.07 448.95,-540.229 426.819,-543.163"/>
<polygon fill="none" stroke="black" points="426.2,-539.714 416.745,-544.493 427.117,-546.653 426.2,-539.714"/>
</g>
<!-- \\SerializableBehaviorTest -->
<g id="node9" class="node"><title>\\SerializableBehaviorTest</title>
<polygon fill="none" stroke="black" points="795,-304 617,-304 617,-268 795,-268 795,-304"/>
<text text-anchor="middle" x="706" y="-283.1" font-family="Courier,monospace" font-size="11.00">SerializableBehaviorTest</text>
</g>
<!-- \\CakeTestCase -->
<g id="node22" class="node"><title>\\CakeTestCase</title>
<ellipse fill="none" stroke="black" cx="327" cy="-72" rx="82.0244" ry="18.3848"/>
<text text-anchor="middle" x="327" y="-68.4" font-family="Times Roman,serif" font-size="14.00" fill="gray">\CakeTestCase</text>
</g>
<!-- \\SerializableBehaviorTest&#45;&gt;\\CakeTestCase -->
<g id="edge17" class="edge"><title>\\SerializableBehaviorTest&#45;&gt;\\CakeTestCase</title>
<path fill="none" stroke="black" d="M616.48,-281.781C598.365,-277.509 580.464,-270.441 566,-259 504.841,-210.623 555.883,-146.447 494,-99 472.61,-82.5996 445.093,-74.4882 418.592,-70.8303"/>
<polygon fill="none" stroke="black" points="418.841,-67.3355 408.5,-69.6385 418.02,-74.2872 418.841,-67.3355"/>
</g>
<!-- \\SerializableBehavior -->
<g id="node10" class="node"><title>\\SerializableBehavior</title>
<polygon fill="none" stroke="black" points="782,-250 630,-250 630,-214 782,-214 782,-250"/>
<text text-anchor="middle" x="706" y="-229.1" font-family="Courier,monospace" font-size="11.00">SerializableBehavior</text>
</g>
<!-- \\ModelBehavior -->
<g id="node24" class="node"><title>\\ModelBehavior</title>
<ellipse fill="none" stroke="black" cx="327" cy="-18" rx="86.9741" ry="18.3848"/>
<text text-anchor="middle" x="327" y="-14.4" font-family="Times Roman,serif" font-size="14.00" fill="gray">\ModelBehavior</text>
</g>
<!-- \\SerializableBehavior&#45;&gt;\\ModelBehavior -->
<g id="edge19" class="edge"><title>\\SerializableBehavior&#45;&gt;\\ModelBehavior</title>
<path fill="none" stroke="black" d="M691.814,-213.948C660.628,-175.681 581.854,-86.5272 494,-45 471.713,-34.4653 446.088,-27.9361 421.71,-23.9184"/>
<polygon fill="none" stroke="black" points="422.129,-20.442 411.716,-22.3969 421.075,-27.3623 422.129,-20.442"/>
</g>
</g>
</svg>
